<?xml version="1.0" encoding="utf-8"?>
<!-- Generator: Adobe Illustrator 19.0.0, SVG Export Plug-In . SVG Version: 6.00 Build 0)  -->
<svg version="1.1" id="Camada_1" xmlns="http://www.w3.org/2000/svg" xmlns:xlink="http://www.w3.org/1999/xlink" x="0px" y="0px"
	 viewBox="0 0 400 400" style="enable-background:new 0 0 400 400;" xml:space="preserve">
<style type="text/css">
	.st0{fill:#bb0b24;}
</style>
<g id="XMLID_58_">
	<g id="XMLID_81_">
		<path id="XMLID_86_" class="st0" d="M41.1,320.2c2.1,10.1,5.5,11.5,11,19.6c3.5,5.1,5.1,11.1,10.4,15.2c2.8,2.2,6.1,2.1,8.3,5
			c2.6,3.4,1.4,7.4,5.6,10c4.1,2.5,8.9,1.2,12.6-1.4c3.5,2.2,2.8,7.7,6.7,9.4c2.9,1.3,6.1-2,9.1-1.4c2.3,0.4,4.6,3.1,6.3,4.4
			c5.4,4.3,17.9,4.5,25.5,4.4c7.2-0.1,14.8-0.9,20.6-4.4c13.7-8.1,15.3-11.7,21.8-25.6c3.5-7.6,26.7-86,9.4-134.9
			c-4.6,0.4-51.8,56.2-76.3,102.5c16.6-50.5,58.5-87.9,56.3-94.3c-1.9,0.5-30.3,12.9-32.2,13.4c12.8-8,41.8-23.9,40.2-22.6
			c3-4.8-2.9,0.6-7.8-4.4c-1.1-1.2-67.1,18.4-98.1,42.9C39.6,282.7,39.5,312.7,41.1,320.2"/>
		<path id="XMLID_85_" class="st0" d="M210.9,207.1c2.5,4.5,21.8,13.7,21.4,21c-1.8-1.5-3.9-0.1-13.6-3.6c0.6,7.9,51,85.8,48.7,93.2
			c-6.5-6.7-53.7-88.3-60.1-94.7c-3.5-3.5,9,31.7,9.3,37.2c-2-1.1-19.3-40.1-20.9-41.1c-1.6-1,16.2,52.3-5.6,129.4
			c-3.4,12.1,8.7,30,21.8,33c8.7,2,16.9,10.8,24.1,4.3c3,6.4,8,0.5,12.5,0.4c3.2-0.1,5.7,2.1,8.7,2.9c5.6,1.3,23.2-2.9,29-3.6
			c14-1.6,23.5-15.5,22.6-28.3c7-1.9,13,4.6,17.7-5.2c3.9-8.2-0.1-8.7,8.1-14c16.4-10.6,13.4-45.9,4.4-59.5
			C330.1,265.3,258.8,206.2,210.9,207.1"/>
		<path id="XMLID_84_" class="st0" d="M204.4,185.1c-1,2,41.7-32.9,42.9-33.7c-2.3,2.3-26.9,29.9-24.5,31.9
			c-0.9-0.7,50.6-24.5,105.4-11.8c-81.5,3.8-102.4,16.3-96,18c-2,0.1,11.7,5.8,10,6.6c0.9,2.2-25-2.8-30.8,2.6
			c67.4,11.6,94.5,40.1,104,47.1c10.1,7.5,49,29.5,60.2-0.8c5.9-7.9,17.6-6.4,8.6-15c1.8,1.7,7.7-9.6,7.9-11.1
			c0.7-5.8,0.1-7.5,2.4-13.2c3.9-9.7,4.8-14.1-1.9-21.2c-8.7-9.3,2.3-11.2-1.1-20.7c-2.1-6-9.7-6.2-13.6-10.6
			c17.4-13.7-1.8-22.1-10.6-33.3c-2.6-3.3-1.5-3.8-3.4-7.8c-3.6-7.4-11.3-11.2-18.3-15.1c-19.7-11-47.7-2.8-67.6,11.3
			C251,127.7,218.8,155.5,204.4,185.1"/>
		<path id="XMLID_83_" class="st0" d="M168,209.5c-37.4,1.9-97.3,34.3-112,45.6c-20.8,16.1-47.5-3.6-42.6-20
			c-4.8-0.9-12.5-1.9-2.8-16.1c-3.8-0.2-7.9-11.9-3.8-32c-6.6,1.6-0.1-17,3.9-23.1c-2.9-2.2,0.5-14.6,8.7-20.7
			c-4.5-1.9-0.5-9.8,7.8-9.9c-2.6-2.7,24.5-15,46-8.7s56.3,38.9,60.9,44.1c7.2,8.2,20.6,19.7,21.6,23.3c-4.1-0.3-86-15.8-99.2-3.9
			c41.9-0.6,91.5,6.8,96.6,13.2c-1.9,0.4-13.3-0.9-14.8,0.5C140.9,203,160.7,202.5,168,209.5"/>
		<path id="XMLID_82_" class="st0" d="M279.4,98.4c8.3-7,17.1-16.4,3.3-27.4c2.4-5.7,2.3-24-8.9-22.9c-0.7-11.3-8.1-15.6-18.1-20.8
			c-5-2.6-7.4-0.8-12.3-2.3c-3.4-1.1-5.6-4.7-9-6c-5.8-2.1-13.3,0.5-18.8,2.7c-9.4-16.8-62.3,9.5-61.2,11.7
			c-5.4-11-11.1,8.9-15.2,12.1c0-1.4-1.1-2.7-1.3-4c-10.3,5.8-9.5,32.5-9.2,45.2c1.5,52.3,55.2,88.6,59.4,91.6
			c-0.5-5-2.7-15.6,0.1-13.9c-1.8-6.1-9.9-56.3,17.3-108c-19.6,52-15.3,101.8-10.6,106c4.1-2.8,6.3-7.2,11-9.9
			c-3.1,5-12.9,17.9-6.9,23.1c2.2-1.4,3.4-3.8,4.4-6.2c-1.8,2.2-5.6,10.3-3.3,12.1C230.3,124.2,271.1,105.4,279.4,98.4"/>
	</g>
	<g id="XMLID_59_">
		<g id="XMLID_61_">
			<path id="XMLID_80_" class="st0" d="M69.8,78c-11-2.1-8.1,5.6-17.9,6.2c-17.7,1.1-5.7-21.8,5.6-5.3C66.5,73,69.8,78,69.8,78"/>
			<path id="XMLID_79_" class="st0" d="M63,64c-10.8-2.8-8.4,4.8-18.2,4.8c-17.8-0.1-4.1-22.1,6-5C60.1,58.6,63,64,63,64"/>
			<path id="XMLID_78_" class="st0" d="M57.6,53.2c-9.2-4.9-8.2,1.7-17-0.4c-16.2-3.8,1.5-21,6.6-3.3C52.5,47.9,57.6,53.2,57.6,53.2
				"/>
			<path id="XMLID_77_" class="st0" d="M77,91.3c-10.4-2-7.4,5.4-16.6,6c-16.8,1.1-5.5-20.6,5.3-5.1C74.1,86.7,77,91.3,77,91.3"/>
			<path id="XMLID_76_" class="st0" d="M83.6,70.6c4.1-9.8,10.2-2.7,15.9-9.7c10.3-12.8-15.3-19.1-7.4,0.7
				C82.3,64.5,83.6,70.6,83.6,70.6"/>
			<path id="XMLID_75_" class="st0" d="M74,56.8c4.2-9.8,10.3-2.6,16-9.5c10.5-12.7-15.1-19.2-7.5,0.6C72.8,50.6,74,56.8,74,56.8"/>
			<path id="XMLID_74_" class="st0" d="M67.8,45.4c1.8-9.8,7.8-3.4,11.5-10.6c6.8-13.2-17.1-16.9-6.5,1.3
				C64.8,39.8,67.8,45.4,67.8,45.4"/>
			<path id="XMLID_73_" class="st0" d="M89.7,81c5.1-7.8,9.5,0.1,15.5-5c10.9-9.3-9.3-19.3-6.3-0.8C90.3,76,89.7,81,89.7,81"/>
			<path id="XMLID_72_" class="st0" d="M61.3,16.2c2.3,4.6-1.3,10.8-8,13.9c-6.8,3.1-14.1,1.8-16.4-2.8c-2.3-4.6,1.3-10.8,8-13.9
				C51.6,10.4,59,11.6,61.3,16.2"/>
		</g>
		<path id="XMLID_60_" class="st0" d="M189.8,210.1c21.7,7.2,16.2-11.6,10.8-17.1c-7.9-8-25.1-15.2-33.8-22.2
			C101,118.3,84.7,78.4,61.3,43.4C88,121.1,154.3,184,172.7,199C181.4,206.1,189.8,210.1,189.8,210.1"/>
	</g>
</g>
</svg>
