<?xml version="1.0" encoding="utf-8"?>
<!-- Generator: Adobe Illustrator 17.0.0, SVG Export Plug-In . SVG Version: 6.00 Build 0)  -->
<!DOCTYPE svg PUBLIC "-//W3C//DTD SVG 1.1//EN" "http://www.w3.org/Graphics/SVG/1.1/DTD/svg11.dtd">
<svg version="1.1" id="Layer_1" xmlns="http://www.w3.org/2000/svg" xmlns:xlink="http://www.w3.org/1999/xlink" x="0px" y="0px"
	 width="40px" height="40px" viewBox="0 0 40 40" enable-background="new 0 0 40 40" xml:space="preserve">
<g id="XMLID_7754_">
	<g id="XMLID_7767_">
		<path id="XMLID_7770_" fill="#EDCB7C" d="M39.237,28.597c-1.874,4.269-6.56,6.248-10.829,4.373
			c-5.519-2.395-8.33-12.912-8.33-12.912s9.684-4.894,15.099-2.499C39.446,19.537,41.112,24.432,39.237,28.597z"/>
		<path id="XMLID_7769_" fill="#EAC163" d="M36.218,27.243c-1.562,3.54-5.415,5.206-8.955,3.644
			c-4.582-1.978-7.081-10.725-7.081-10.725s8.226-3.957,12.808-1.874C36.426,19.746,37.675,23.703,36.218,27.243z"/>
		<path id="XMLID_7768_" fill="#E6B537" d="M34.031,26.306c-1.354,3.02-4.686,4.478-7.601,3.124
			c-3.853-1.77-6.248-9.267-6.248-9.267s7.185-3.228,11.142-1.562C34.239,19.85,35.385,23.286,34.031,26.306z"/>
	</g>
	<g id="XMLID_7763_">
		<path id="XMLID_7766_" fill="#EDCB7C" d="M1.022,11.624c-1.874,4.269-0.312,9.059,3.957,10.933
			c5.519,2.395,15.099-2.499,15.099-2.499s-2.811-10.413-8.33-12.912C7.582,5.376,2.897,7.354,1.022,11.624z"/>
		<path id="XMLID_7765_" fill="#EAC163" d="M4.042,12.977c-1.562,3.54-0.208,7.497,3.332,9.059
			c4.582,1.978,12.808-1.874,12.808-1.874s-2.603-8.747-7.081-10.725C9.561,7.771,5.604,9.437,4.042,12.977z"/>
		<path id="XMLID_7764_" fill="#E6B537" d="M6.229,13.915c-1.354,3.02-0.208,6.456,2.811,7.706
			c3.853,1.77,11.142-1.562,11.142-1.562s-2.395-7.601-6.248-9.267C10.81,9.541,7.582,10.895,6.229,13.915z"/>
	</g>
	<g id="XMLID_7759_">
		<path id="XMLID_7762_" fill="#EDCB7C" d="M28.616,1.003c4.269,1.874,6.248,6.56,4.373,10.829
			c-2.395,5.519-12.912,8.33-12.912,8.33s-4.894-9.684-2.499-15.099C19.557,0.794,24.347-0.872,28.616,1.003z"/>
		<path id="XMLID_7761_" fill="#EAC163" d="M27.263,4.022c3.54,1.562,5.206,5.415,3.644,8.955
			c-1.978,4.582-10.725,7.081-10.725,7.081s-3.957-8.226-1.874-12.808C19.765,3.814,23.722,2.565,27.263,4.022z"/>
		<path id="XMLID_7760_" fill="#E6B537" d="M26.325,6.209c3.02,1.354,4.478,4.686,3.124,7.601c-1.77,3.853-9.267,6.248-9.267,6.248
			s-3.228-7.185-1.562-11.142C19.87,6.001,23.306,4.855,26.325,6.209z"/>
	</g>
	<g id="XMLID_7755_">
		<path id="XMLID_7758_" fill="#EDCB7C" d="M11.643,39.218c4.269,1.874,9.059,0.312,10.933-3.957
			c2.395-5.519-2.499-15.099-2.499-15.099s-10.413,2.811-12.912,8.33C5.396,32.658,7.374,37.343,11.643,39.218z"/>
		<path id="XMLID_7757_" fill="#EAC163" d="M12.997,36.198c3.54,1.562,7.497,0.208,9.059-3.332
			c1.978-4.582-1.874-12.808-1.874-12.808s-8.747,2.603-10.725,7.081C7.791,30.783,9.457,34.636,12.997,36.198z"/>
		<path id="XMLID_7756_" fill="#E6B537" d="M13.934,34.011c3.02,1.354,6.456,0.208,7.705-2.811
			c1.77-3.853-1.562-11.142-1.562-11.142s-7.601,2.395-9.267,6.248C9.457,29.43,10.914,32.658,13.934,34.011z"/>
	</g>
</g>
</svg>
