<?xml version="1.0" encoding="utf-8"?>
<!-- Generator: Adobe Illustrator 19.0.0, SVG Export Plug-In . SVG Version: 6.00 Build 0)  -->
<svg version="1.1" id="Camada_1" xmlns="http://www.w3.org/2000/svg" xmlns:xlink="http://www.w3.org/1999/xlink" x="0px" y="0px"
	 viewBox="0 0 400 400" style="enable-background:new 0 0 400 400;" xml:space="preserve">
<style type="text/css">
	.st0{fill:#8FB89E;}
	.st1{fill:#76A98A;}
	.st2{fill:#811A1F;}
</style>
<g id="XMLID_871_">
	<g id="XMLID_1713_">
		<path id="XMLID_1715_" class="st0" d="M28.9,113.9c11.6-23.3,48.9-28.5,86.2-9.8c48.4,24.3,82,93.9,82,93.9s-75.8,14.8-124.2-9.3
			C35.7,170.1,17.3,137.2,28.9,113.9z"/>
		<path id="XMLID_1714_" class="st1" d="M74.7,136.7c8.3-16.6,34.4-20.2,60.8-7c34.2,17.1,61.6,68.1,61.6,68.1s-57.5,8.8-91.6-8.5
			C79.4,176.6,66.5,153.3,74.7,136.7z"/>
	</g>
	<g id="XMLID_1710_">
		<path id="XMLID_1712_" class="st0" d="M65.2,332.1c-18.6-18.4-11.9-55.4,17.3-84.9c38-38.6,114.6-48.9,114.6-48.9
			s-9.3,76.9-47.4,115.4C120.5,343.2,83.8,350.5,65.2,332.1z"/>
		<path id="XMLID_1711_" class="st1" d="M100.9,295.6c-13.2-12.9-8.5-39.1,12.2-60c26.9-27.2,83.9-37.5,83.9-37.5
			s-9.6,57.2-36.2,84.4C140.2,303.6,114.1,308.6,100.9,295.6z"/>
	</g>
	<g id="XMLID_1707_">
		<path id="XMLID_1709_" class="st0" d="M283.8,365c-23.3,11.9-56.2-5.7-75.3-42.7C183.7,274.1,197.4,198,197.4,198
			s70.1,32.6,95,80.7C311.5,315.8,306.9,353.1,283.8,365z"/>
		<path id="XMLID_1708_" class="st1" d="M260.3,319.7c-16.3,8.5-39.9-4.1-53.3-30.3c-17.6-33.9-9.8-91.4-9.8-91.4
			s51.5,26.7,69.1,60.6C279.7,285,276.6,311.1,260.3,319.7z"/>
	</g>
	<g id="XMLID_1704_">
		<path id="XMLID_1706_" class="st0" d="M382.7,167.3c4.4,25.9-22.8,51.8-63.9,58.5c-53.3,8.8-121.6-27.7-121.6-27.7
			s52.8-56.7,106.1-65.5C344.4,125.8,378.3,141.6,382.7,167.3z"/>
		<path id="XMLID_1705_" class="st1" d="M332.2,175.8c3.1,18.1-16,36.5-45.3,41.4c-37.8,6.2-90.1-18.9-90.1-18.9
			s41.4-40.6,78.9-47.1C305.3,146.3,329.4,157.4,332.2,175.8z"/>
	</g>
	<g id="XMLID_1701_">
		<path id="XMLID_1703_" class="st0" d="M225.1,12.2c25.9,3.9,42.2,37.8,36,78.9c-8,53.6-63.9,107.1-63.9,107.1
			s-37.5-67.5-29.5-121.1C173.9,35.8,199.5,8.3,225.1,12.2z"/>
		<path id="XMLID_1702_" class="st1" d="M217.6,62.7c18.1,2.8,29.8,26.7,25.4,55.9c-5.7,37.8-45.8,79.7-45.8,79.7
			s-25.9-51.8-20.2-89.5C181.4,79.3,199.2,59.8,217.6,62.7z"/>
	</g>
	<path id="XMLID_1394_" class="st2" d="M126.2,162.6c4.7-9.6,19.9-11.6,35.2-3.9c19.7,9.8,35.7,39.3,35.7,39.3s-33.1,4.9-52.8-4.9
		C129.1,185.6,121.6,172.2,126.2,162.6z"/>
	<path id="XMLID_1393_" class="st2" d="M141.5,254.5c-7.5-7.5-4.9-22.5,7-34.7C164,204,196.9,198,196.9,198s-5.4,33.1-21,48.9
		C164.3,259.1,149.3,262,141.5,254.5z"/>
	<path id="XMLID_878_" class="st2" d="M233.6,268.4c-9.6,4.9-23-2.3-30.8-17.3c-10.1-19.7-5.7-52.8-5.7-52.8s29.8,15.5,39.9,34.9
		C245,248.3,243,263.5,233.6,268.4z"/>
	<path id="XMLID_876_" class="st2" d="M275.3,185.1c1.8,10.6-9.3,21.2-26.1,23.8c-21.7,3.6-52-10.9-52-10.9s23.8-23.6,45.5-27.2
		C259.5,168.3,273.5,174.8,275.3,185.1z"/>
	<path id="XMLID_873_" class="st2" d="M209.1,119.9c10.6,1.6,17.1,15.3,14.8,32.4c-3.4,21.7-26.4,46.1-26.4,46.1s-15-30-11.6-51.8
		C188.1,129.5,198.4,118.3,209.1,119.9z"/>
</g>
</svg>
