<?xml version="1.0" encoding="utf-8"?>
<!-- Generator: Adobe Illustrator 19.0.0, SVG Export Plug-In . SVG Version: 6.00 Build 0)  -->
<svg version="1.1" id="Layer_1" xmlns="http://www.w3.org/2000/svg" xmlns:xlink="http://www.w3.org/1999/xlink" x="0px" y="0px"
	 viewBox="-97 320.9 400 200" style="enable-background:new -97 320.9 400 200;" xml:space="preserve">
<style type="text/css">
	.st0{fill:#BE202E;}
	.st1{fill:#1C3616;}
</style>
<g id="XMLID_58_">
	<g id="XMLID_81_">
		<path id="XMLID_86_" class="st0" d="M194.8,359.8c-0.2,1.2-0.6,1.4-1.3,2.4c-0.4,0.6-0.6,1.4-1.2,1.9c-0.3,0.3-0.7,0.3-1,0.6
			c-0.3,0.4-0.2,0.9-0.7,1.2c-0.5,0.3-1,0.1-1.5-0.2c-0.4,0.3-0.3,0.9-0.8,1.2c-0.3,0.2-0.7-0.2-1.1-0.2c-0.3,0.1-0.5,0.4-0.7,0.5
			c-0.6,0.5-2.1,0.6-3,0.5c-0.8,0-1.7-0.1-2.4-0.5c-1.6-1-1.8-1.4-2.5-3.1c-0.4-0.9-3.1-10.6-1.1-16.6c0.5,0,6,6.9,8.9,12.6
			c-1.9-6.2-6.8-10.8-6.5-11.6c0.2,0.1,3.5,1.6,3.7,1.6c-1.5-1-4.9-2.9-4.7-2.8c-0.4-0.6,0.3,0.1,0.9-0.5c0.1-0.1,7.8,2.3,11.4,5.3
			C194.8,355.2,194.8,358.9,194.8,359.8"/>
		<path id="XMLID_85_" class="st0" d="M175,345.9c-0.3,0.6-2.5,1.7-2.5,2.6c0.2-0.2,0.5,0,1.6-0.4c-0.1,1-5.9,10.6-5.7,11.5
			c0.8-0.8,6.2-10.9,7-11.6c0.4-0.4-1,3.9-1.1,4.6c0.2-0.1,2.2-4.9,2.4-5.1c0.2-0.1-1.9,6.4,0.7,15.9c0.4,1.5-1,3.7-2.5,4.1
			c-1,0.2-2,1.3-2.8,0.5c-0.3,0.8-0.9,0.1-1.4,0c-0.4,0-0.7,0.3-1,0.4c-0.7,0.2-2.7-0.4-3.4-0.4c-1.6-0.2-2.7-1.9-2.6-3.5
			c-0.8-0.2-1.5,0.6-2.1-0.6c-0.5-1,0-1.1-0.9-1.7c-1.9-1.3-1.6-5.6-0.5-7.3C161,353,169.3,345.8,175,345.9"/>
		<path id="XMLID_84_" class="st0" d="M175.8,343.2c0.1,0.2-4.9-4-5-4.1c0.3,0.3,3.1,3.7,2.8,3.9c0.1-0.1-5.9-3-12.3-1.4
			c9.5,0.5,11.9,2,11.2,2.2c0.2,0-1.4,0.7-1.2,0.8c-0.1,0.3,2.9-0.3,3.6,0.3c-7.8,1.4-11,4.9-12.1,5.8c-1.2,0.9-5.7,3.6-7-0.1
			c-0.7-1-2-0.8-1-1.8c-0.2,0.2-0.9-1.2-0.9-1.4c-0.1-0.7,0-0.9-0.3-1.6c-0.5-1.2-0.6-1.7,0.2-2.6c1-1.1-0.3-1.4,0.1-2.5
			c0.2-0.7,1.1-0.8,1.6-1.3c-2-1.7,0.2-2.7,1.2-4.1c0.3-0.4,0.2-0.5,0.4-1c0.4-0.9,1.3-1.4,2.1-1.9c2.3-1.4,5.6-0.3,7.9,1.4
			C170.3,336.1,174,339.5,175.8,343.2"/>
		<path id="XMLID_83_" class="st0" d="M180,346.2c4.3,0.2,11.3,4.2,13,5.6c2.4,2,5.5-0.4,5-2.5c0.6-0.1,1.4-0.2,0.3-2
			c0.4,0,0.9-1.5,0.4-3.9c0.8,0.2,0-2.1-0.5-2.8c0.3-0.3-0.1-1.8-1-2.5c0.5-0.2,0.1-1.2-0.9-1.2c0.3-0.3-2.9-1.8-5.4-1.1
			c-2.5,0.7-6.6,4.8-7.1,5.4c-0.8,1-2.4,2.4-2.5,2.9c0.5,0,10-1.9,11.5-0.5c-4.9-0.1-10.6,0.8-11.2,1.6c0.2,0,1.5-0.1,1.7,0.1
			C183.1,345.4,180.8,345.3,180,346.2"/>
		<path id="XMLID_82_" class="st0" d="M167,332.5c-1-0.9-2-2-0.4-3.4c-0.3-0.7-0.3-2.9,1-2.8c0.1-1.4,0.9-1.9,2.1-2.6
			c0.6-0.3,0.9-0.1,1.4-0.3c0.4-0.1,0.6-0.6,1-0.7c0.7-0.3,1.5,0.1,2.2,0.3c1.1-2.1,7.2,1.2,7.1,1.4c0.6-1.4,1.3,1.1,1.8,1.5
			c0-0.2,0.1-0.3,0.2-0.5c1.2,0.7,1.1,4,1.1,5.6c-0.2,6.4-6.4,10.9-6.9,11.3c0.1-0.6,0.3-1.9,0-1.7c0.2-0.8,1.2-6.9-2-13.3
			c2.3,6.4,1.8,12.5,1.2,13c-0.5-0.3-0.7-0.9-1.3-1.2c0.4,0.6,1.5,2.2,0.8,2.8c-0.3-0.2-0.4-0.5-0.5-0.8c0.2,0.3,0.6,1.3,0.4,1.5
			C172.6,335.7,168,333.4,167,332.5"/>
	</g>
	<g id="XMLID_59_">
		<g id="XMLID_61_">
			<path id="XMLID_80_" class="st0" d="M191.3,330c1.3-0.3,0.9,0.7,2.1,0.8c2.1,0.1,0.7-2.7-0.6-0.7
				C191.8,329.4,191.3,330,191.3,330"/>
			<path id="XMLID_79_" class="st0" d="M192.1,328.3c1.3-0.3,1,0.6,2.1,0.6c2.1,0,0.5-2.7-0.7-0.6
				C192.5,327.6,192.1,328.3,192.1,328.3"/>
			<path id="XMLID_78_" class="st0" d="M192.8,327c1.1-0.6,0.9,0.2,2,0c1.9-0.5-0.2-2.6-0.8-0.4C193.3,326.3,192.8,327,192.8,327"/>
			<path id="XMLID_77_" class="st0" d="M190.6,331.6c1.2-0.2,0.9,0.7,1.9,0.7c2,0.1,0.6-2.5-0.6-0.6
				C190.8,331.1,190.6,331.6,190.6,331.6"/>
			<path id="XMLID_76_" class="st0" d="M189.8,329.1c-0.5-1.2-1.2-0.3-1.8-1.2c-1.2-1.6,1.8-2.3,0.9,0.1
				C190,328.3,189.8,329.1,189.8,329.1"/>
			<path id="XMLID_75_" class="st0" d="M190.8,327.4c-0.5-1.2-1.2-0.3-1.9-1.2c-1.2-1.6,1.8-2.4,0.9,0.1
				C191,326.6,190.8,327.4,190.8,327.4"/>
			<path id="XMLID_74_" class="st0" d="M191.6,326c-0.2-1.2-0.9-0.4-1.3-1.3c-0.8-1.6,2-2.1,0.8,0.2C192,325.3,191.6,326,191.6,326"
				/>
			<path id="XMLID_73_" class="st0" d="M189,330.4c-0.6-1-1.1,0-1.8-0.6c-1.3-1.1,1.1-2.4,0.7-0.1C189,329.8,189,330.4,189,330.4"/>
			<path id="XMLID_72_" class="st0" d="M192.3,322.4c-0.3,0.6,0.1,1.3,0.9,1.7s1.6,0.2,1.9-0.3c0.3-0.6-0.1-1.3-0.9-1.7
				C193.5,321.7,192.6,321.8,192.3,322.4"/>
		</g>
		<path id="XMLID_60_" class="st0" d="M177.5,346.3c-2.5,0.9-1.9-1.4-1.3-2.1c0.9-1,2.9-1.9,3.9-2.7c7.6-6.5,9.5-11.4,12.3-15.7
			c-3.1,9.5-10.8,17.3-13,19.1C178.3,345.8,177.5,346.3,177.5,346.3"/>
	</g>
</g>
<g id="XMLID_4_">
	<g id="XMLID_21_">
		<path id="XMLID_56_" class="st1" d="M-31.1,343.6c4.1,0.8,6.1,2.9,6,6.5v8c-0.5,1.1-1,4.7-1.5,11l-2.5,12
			c-0.6,8.3-1.1,13-1.6,14.1l0.2,3.8l-0.5,3.1c0.9,11.8,1.9,19.1,3,21.9c1.3,8.8,3.9,13.3,7.8,13.4c3,0.1,4.5,0.7,4.4,1.9v0.3
			c-1.7,1.5-3.3,2.4-4.6,2.6c-5.7-2.1-8.5-4.3-8.4-6.5c-1.1,0-2.9-7.4-5.4-22l-0.8-15.2l0.5-2.7l0.1-2.1l-0.3-0.4l0.4-0.3l0.1-3.1
			l3-22.7h-0.3l0.4-0.3l0.7-10.3l0.2-4.8l-0.9-3.1h-0.3c-4.2,2.6-8.8,10.6-13.7,24l-5.7,21.9l-1.8,1.3h-0.7
			c-1.9-0.1-3.7-1.5-5.4-4.4c1.2,0,2.6-6.7,4.2-20.2h-0.3l0.4-0.3v-0.3l0.7-9.6c-0.1-8.1-0.7-12.1-1.9-12.2
			c-3.8,1.6-7.7,9.2-11.9,22.7l-0.9,5.8l0.3,1.4c-3,11-4.8,20.8-5.6,29.2c-0.4,1.6-1.2,2.4-2.5,2.3h-0.7c-3-0.7-4.4-1.8-4.4-3.3
			c6.4-21.4,9.7-35.9,10-43.5l0.1-2.1h-0.7l-5,4.6c-1.8,1.1-4.5,1.8-8,2.1h-1c-6.3-0.2-10-2.8-11.1-7.7v-0.3c0.1-2.7,1.1-4.6,3-5.8
			l2.4,0.1c0.4,6.2,1.8,9.4,4.1,9.5h0.7c5.7-1.2,9.6-3.2,11.6-6.1l4.4-7.1l1.7-0.3c3.2,1.3,4.7,3.2,4.6,5.7h0.3
			c0.9-0.1,2-2.8,3.4-8.2c0.5,0,1.6-1,3.2-3c0.9-0.4,2.2-0.6,3.8-0.5c1.5,0.8,2.9,2,4,3.6l1.5,6.6l-0.4,0.3l0.2,3.1l-1.6,15.5h0.3
			c1.6-0.7,4.5-5.9,8.6-15.6l8.1-12.1C-33.1,344.9-32.4,344.3-31.1,343.6z"/>
		<path id="XMLID_54_" class="st1" d="M-3.8,369.6c1.8,0.1,2.8,1.6,3,4.6l-0.9,2.9l-0.5-0.5l0.1-2.1c0-0.9-0.3-1.6-1-1.9h-0.3
			c-6.4-0.2-12,7.3-16.7,22.5l-1,6.5c0.3,3.2,0.7,4.8,1.1,4.8h0.5c3.2-2.9,6.7-6.9,10.5-12.2c1-3.2,2.7-10.8,5.2-23
			c0.9-0.8,2-1.3,3.2-1.5h0.5c0,0.7,0.5,1.7,1.7,3v0.5c-4.5,14.5-6.8,23.7-7,27.7c0.3,2.5,1.3,3.7,3,3.8c3.3-0.3,5-0.6,5-0.9
			c1.2,0.3,2,0.8,2.6,1.7c0,0.9-2.4,1.8-6.9,2.6h-0.8c-2.9-0.1-5.2-2.3-6.9-6.6c0-0.3-0.3-0.5-1-0.6c-3.4,4.7-5.9,7.7-7.5,8.9
			l-2.1,0.4c-3.2-0.1-4.6-2.4-4.5-6.8l0.1-2.1c0.2-4.6,1.5-10.4,4.1-17.5c4.4-8.4,7.9-12.8,10.5-13.3C-9.6,370-7.6,369.7-3.8,369.6z
			"/>
		<path id="XMLID_51_" class="st1" d="M12.7,389.4l-1.3,2.4l4.9-12.9v0.3c-0.6,0.8-0.1,0.2,1.5-1.6l0.1,5.3
			c-7.2,19.1-12.5,28.6-16,28.5H1.1l-0.6-0.5v-0.3c1.6,0.1,3.6-2.5,6-7.6C7.9,400.5,9.9,396.1,12.7,389.4z M16.6,371.6
			c1.1,0,2.1,0.8,3.1,2.2v0.3l-0.6,2.1c-0.3,7.7,1.7,11.7,5.9,11.8c1.4,0.7,2.1,1.4,2,2.2c-0.1,1.4-0.9,4.9-2.5,10.4l-0.8,6.8v0.3
			l1.7,4.8c-0.3,2.3-1.3,3.4-3,3.3c-1,0-2.3-1.2-3.8-3.6l3.4-20.4c-3.2-2.7-5.1-4.9-5.5-6.8h-0.3c1.9-2.1,2.1-3,0.8-2.5
			s-2-0.2-1.9-2.1c-0.3-4.6-0.5-6.9-0.8-6.9C14.4,372.2,15.2,371.6,16.6,371.6z"/>
		<path id="XMLID_48_" class="st1" d="M37.4,377.3c2.2,0.1,3.4,1.2,3.8,3.3c-1.6,1.9-3.5,5.5-5.7,10.6c-1.4,2.1-2.5,5.9-3.3,11.5
			c-0.2,4,0.8,6.1,2.9,6.2l2.6,0.4l5.3-1.6c0.7,0.3,1,0.6,1,0.8c-1.8,3.3-4.2,4.8-7.3,4.7c-3.8-0.9-6.5-2.6-8.2-5.1l-0.8-5.3
			c2.1-8.7,5.1-17.2,9.2-25.5H37.4z M42.2,360.1c1.8,0.1,3,1.1,3.8,3c-0.4,2.3-1.4,3.4-3,3.3c-2.2-1.1-3.3-2.7-3.2-4.6v-0.5
			C40.6,360.5,41.4,360.1,42.2,360.1z"/>
		<path id="XMLID_46_" class="st1" d="M63.9,372.3c1.8,0.1,2.8,1.6,3,4.6l-0.9,2.9l-0.5-0.5l0.1-2.1c0-0.9-0.3-1.6-1-1.9h-0.3
			c-6.4-0.2-12,7.3-16.7,22.5l-1,6.5c0.3,3.2,0.7,4.8,1.1,4.8h0.5c3.2-2.9,6.7-6.9,10.5-12.2c1-3.2,2.7-10.8,5.2-23
			c0.9-0.8,2-1.3,3.2-1.5h0.5c0,0.7,0.5,1.7,1.7,3v0.5c-4.5,14.5-6.8,23.7-7,27.7c0.3,2.5,1.3,3.7,3,3.8c3.3-0.3,5-0.6,5-0.9
			c1.2,0.3,2,0.8,2.6,1.7c0,0.9-2.4,1.8-6.9,2.6h-0.8c-2.9-0.1-5.2-2.3-6.9-6.6c0-0.3-0.3-0.5-1-0.6c-3.4,4.7-5.9,7.7-7.5,8.9
			l-2.1,0.4c-3.2-0.1-4.6-2.4-4.5-6.8l0.1-2.1c0.2-4.6,1.5-10.4,4.1-17.5c4.4-8.4,7.9-12.8,10.5-13.3
			C58,372.7,59.9,372.3,63.9,372.3z"/>
		<path id="XMLID_44_" class="st1" d="M139.3,350.2c4.1,0.8,6.1,2.9,6,6.5v8c-0.5,1.1-1,4.7-1.5,11l-2.5,12
			c-0.6,8.3-1.1,13-1.6,14.1l0.2,3.8l-0.5,3.1c0.9,11.8,1.9,19.1,3,21.9c1.3,8.8,3.9,13.3,7.8,13.4c3,0.1,4.5,0.7,4.4,1.9v0.3
			c-1.7,1.5-3.3,2.4-4.6,2.6c-5.7-2.1-8.5-4.3-8.4-6.5c-1.1,0-2.9-7.4-5.4-22l-0.8-15.2l0.5-2.7l0.1-2.1l-0.3-0.4l0.4-0.3l0.1-3.1
			l3-22.7h-0.3l0.4-0.3l0.7-10.3l0.2-4.8l-0.9-3.1H139c-4.2,2.6-8.8,10.6-13.7,24l-5.7,21.9l-1.8,1.3h-0.7c-1.9-0.1-3.7-1.5-5.4-4.4
			c1.2,0,2.6-6.7,4.2-20.2h-0.3l0.4-0.3v-0.3l0.7-9.6c-0.1-8.1-0.7-12.1-1.9-12.2c-3.8,1.6-7.7,9.2-11.9,22.7L102,384l0.3,1.4
			c-3,11-4.8,20.8-5.6,29.2c-0.4,1.6-1.2,2.4-2.5,2.3h-0.7c-3-0.7-4.4-1.8-4.4-3.3c6.4-21.4,9.7-35.9,10-43.5l0.1-2.1h-0.7l-5,4.6
			c-1.8,1.1-4.5,1.8-8,2.1h-1c-6.3-0.2-10-2.8-11.1-7.7v-0.3c0.1-2.7,1.1-4.6,3-5.8l2.4,0.1c0.4,6.2,1.8,9.4,4.1,9.5h0.7
			c5.7-1.2,9.6-3.2,11.6-6.1l4.4-7.1l1.7-0.3c3.2,1.3,4.7,3.2,4.6,5.7h0.3c0.9-0.1,2-2.8,3.4-8.2c0.5,0,1.6-1,3.2-3
			c0.9-0.4,2.2-0.6,3.8-0.5c1.5,0.8,2.9,2,4,3.6l1.5,6.6l-0.4,0.3l0.2,3.1l-1.6,15.5h0.3c1.6-0.7,4.5-5.9,8.6-15.6l8.1-12.1
			C137.1,351.5,137.8,350.9,139.3,350.2z"/>
		<path id="XMLID_39_" class="st1" d="M166.5,376.2c1.8,0.1,2.8,1.6,3,4.6l-0.9,2.9l-0.5-0.5l0.1-2.1c0-0.9-0.3-1.6-1-1.9h-0.3
			c-6.4-0.2-12,7.3-16.7,22.5l-1,6.5c0.3,3.2,0.7,4.8,1.1,4.8h0.5c3.2-2.9,6.7-6.9,10.5-12.2c1-3.2,2.7-10.8,5.2-23
			c0.9-0.8,2-1.3,3.2-1.5h0.5c0,0.7,0.5,1.7,1.7,3v0.5c-4.5,14.5-6.8,23.7-7,27.7c0.3,2.5,1.3,3.7,3,3.8c3.3-0.3,5-0.6,5-0.9
			c1.2,0.3,2,0.8,2.6,1.7c0,0.9-2.4,1.8-6.9,2.6h-0.8c-2.9-0.1-5.2-2.3-6.9-6.6c0-0.3-0.3-0.5-1-0.6c-3.4,4.7-5.9,7.7-7.5,8.9
			l-2.1,0.4c-3.2-0.1-4.6-2.4-4.5-6.8l0.1-2.1c0.2-4.6,1.5-10.4,4.1-17.5c4.4-8.4,7.9-12.8,10.5-13.3
			C160.6,376.6,162.6,376.3,166.5,376.2z"/>
		<path id="XMLID_35_" class="st1" d="M183,396l-1.3,2.4l4.9-12.9v0.3c-0.6,0.8-0.1,0.2,1.5-1.6l0.1,5.3
			c-7.2,19.1-12.5,28.6-16,28.5h-0.8l-0.6-0.5v-0.3c1.6,0.1,3.6-2.5,6-7.6C178,407.2,180.1,402.7,183,396z M186.8,378.2
			c1.1,0,2.1,0.8,3.1,2.2v0.3l-0.6,2.1c-0.3,7.7,1.7,11.7,5.9,11.8c1.4,0.7,2.1,1.4,2,2.2c-0.1,1.4-0.9,4.9-2.5,10.4l-0.8,6.8v0.3
			l1.7,4.8c-0.3,2.3-1.3,3.4-3,3.3c-1,0-2.3-1.2-3.8-3.6l3.4-20.4c-3.2-2.7-5.1-4.9-5.5-6.8h-0.3c1.9-2.1,2.1-3,0.8-2.5
			s-2-0.2-1.9-2.1c-0.3-4.6-0.5-6.9-0.8-6.9C184.8,378.8,185.6,378.2,186.8,378.2z"/>
		<path id="XMLID_26_" class="st1" d="M207.6,383.9c2.2,0.1,3.4,1.2,3.8,3.3c-1.6,1.9-3.5,5.5-5.7,10.6c-1.4,2.1-2.5,5.9-3.3,11.5
			c-0.2,4,0.8,6.1,2.9,6.2l2.6,0.4l5.3-1.6c0.7,0.3,1,0.6,1,0.8c-1.8,3.3-4.2,4.8-7.3,4.7c-3.8-0.9-6.5-2.6-8.2-5.1l-0.8-5.3
			c2.1-8.7,5.1-17.2,9.2-25.5L207.6,383.9z M212.6,366.7c1.8,0.1,3,1.1,3.8,3c-0.4,2.3-1.4,3.4-3,3.3c-2.2-1.1-3.3-2.7-3.2-4.6v-0.5
			C210.8,367.1,211.6,366.7,212.6,366.7z"/>
		<path id="XMLID_23_" class="st1" d="M234,378.9c1.8,0.1,2.8,1.6,3,4.6l-0.9,2.9l-0.5-0.5l0.1-2.1c0-0.9-0.3-1.6-1-1.9h-0.3
			c-6.4-0.2-12,7.3-16.7,22.5l-1,6.5c0.3,3.2,0.7,4.8,1.1,4.8h0.5c3.2-2.9,6.7-6.9,10.5-12.2c1-3.2,2.7-10.8,5.2-23
			c0.9-0.8,2-1.3,3.2-1.5h0.5c0,0.7,0.5,1.7,1.7,3v0.5c-4.5,14.5-6.8,23.7-7,27.7c0.3,2.5,1.3,3.7,3,3.8c3.3-0.3,5-0.6,5-0.9
			c1.2,0.3,2,0.8,2.6,1.7c0,0.9-2.4,1.8-6.9,2.6h-0.8c-2.9-0.1-5.2-2.3-6.9-6.6c0-0.3-0.3-0.5-1-0.6c-3.4,4.7-5.9,7.7-7.5,8.9
			l-2.1,0.4c-3.2-0.1-4.6-2.4-4.5-6.8l0.1-2.1c0.2-4.6,1.5-10.4,4.1-17.5c4.4-8.4,7.9-12.8,10.5-13.3
			C228.3,379.3,230.3,378.9,234,378.9z"/>
	</g>
	<g id="XMLID_9_">
		<path id="XMLID_20_" class="st1" d="M194.3,461.2c-0.4,0-0.8,0.2-1.3,0.6c0,1.4-1,3.1-2.9,5.1c-1.8,2.3-3.8,3.5-5.9,3.5h-0.5
			c-1.5,0-2.7-1.6-3.5-5l0.3-3.5l-0.2-1.8l0.6-3.5c0.3-3.9,1.6-7.6,3.8-11.3c2-4.3,3.7-7.1,5-8.3h0.3c0.8-0.7,1.7-1.4,2.6-1.8
			l0.1-0.1v-0.2c-0.7-1.2-1.6-1.8-2.7-1.8c-0.6,0-1.8,1-3.7,2.9c-5.7,10.3-8.6,19.4-8.6,27.5c0.4,2.8,0.7,4.3,1,4.8
			c1.2,3,3.4,4.5,6.5,4.5l0.5-0.2l0.2-0.2c1.6,0,3.4-1.4,5.4-4.3c3-3,4.5-4.8,4.5-5.3C195.8,462.3,195.3,461.7,194.3,461.2z"/>
		<path id="XMLID_18_" class="st1" d="M208,447c1.1,0,1.7,0.9,1.9,2.7l-0.5,1.8l-0.3-0.3v-1.3c0-0.6-0.2-0.9-0.6-1.1h-0.2
			c-3.9,0-7.1,4.7-9.6,14.1l-0.5,4c0.3,1.9,0.5,2.9,0.8,2.9h0.3c1.9-1.8,3.9-4.4,6.1-7.7c0.5-1.9,1.4-6.6,2.6-14.1
			c0.5-0.5,1.2-0.9,1.9-1h0.3c0,0.4,0.4,1,1.1,1.8v0.3c-2.4,8.9-3.6,14.5-3.6,16.9c0.2,1.5,0.9,2.2,1.9,2.2c2-0.3,3-0.5,3-0.6
			c0.7,0.1,1.2,0.5,1.6,1c0,0.5-1.4,1.1-4.2,1.8h-0.5c-1.8,0-3.2-1.3-4.3-3.8c0-0.2-0.2-0.3-0.6-0.3c-1.9,3-3.4,4.8-4.3,5.6
			l-1.3,0.3c-1.9,0-2.9-1.3-2.9-4v-1.3c0-2.8,0.7-6.4,2.1-10.7c2.5-5.2,4.5-7.9,6.1-8.3C204.5,447.3,205.6,447.1,208,447z"/>
		<path id="XMLID_13_" class="st1" d="M225,443.3c0.8,0,1.5,0.7,2.1,2.1c-0.6,0.7-1.4,2.8-2.6,6.2c-1.7,3.1-3.4,7.6-5.1,13.6
			c0,0.5,1.1,2.4,3.2,5.6c0.8,2.1,1.4,3.2,1.8,3.2h1l1.1-0.3c0.4,0.2,0.6,0.3,0.6,0.5v0.2c0,0.6-0.7,1.4-2.1,2.4
			c1.1,3.1,1.6,6.8,1.6,10.9v0.2c0,4.4-1.8,9.2-5.4,14.5c-0.9,1.6-2.4,2.8-4.6,3.5h-0.4c-3-0.7-4.5-1.8-4.5-3
			c-1.1-1.7-1.6-3.7-1.6-6.1l0.2-1.3h-0.2l0.2-0.2v-0.2c0-5.7,1.8-14.3,5.3-25.7l0.2-1h-0.3c-0.5-0.4-0.2-2,0.8-4.6
			c1-0.6,2.3-2.9,3.7-7c1.4-5.5,2.8-9.9,4.2-13.3L225,443.3z M217.3,471.4c-1.9,5.8-2.9,9.5-2.9,10.9c-0.2,0-0.4,0.7-0.6,2.2
			l0.2,0.2c-1.1,4.6-1.6,8.6-1.6,12l0.3,1.8l-0.2,0.5c0.9,2.7,1.9,4,3,4h0.3c2.8,0,5.5-3.6,8.1-10.9l1-5.4c0-3.5-0.6-7-1.9-10.5
			c-1.7-0.5-3.5-2.1-5.4-4.6L217.3,471.4L217.3,471.4z M219.5,469.6v0.2c0,0.8,0.6,1.8,1.9,2.9l0.2-0.2v-0.2l-1.8-2.7L219.5,469.6
			L219.5,469.6z"/>
		<path id="XMLID_10_" class="st1" d="M237.6,448.2c0.4,0,1.1,0.5,1.9,1.6c-1,5.4-2.6,9.4-4.8,12c-2.2,2.6-4,4-5.6,4.5l-0.3,0.3v0.2
			c0.2,2.1,1.1,3.2,2.7,3.2l0.5,0.2c1.1,0,4.3-2.1,9.6-6.2c0.5,0,0.9,0.5,1.3,1.4c0,0.7-2.8,2.7-8.3,5.9c0,0.2-0.8,0.5-2.4,0.8h-0.5
			c-1.3,0-2.8-1-4.5-2.9c-0.5-2.3-0.7-4.7-0.5-7.2c0.3-1.8,1.7-4.5,4.3-8.2C233.6,450.2,235.6,448.3,237.6,448.2z M229.5,463.6
			c2.6-1.3,4.7-4.1,6.4-8.3l1.3-3.4l-5.1,5.1L229.5,463.6z"/>
	</g>
	<g id="XMLID_5_">
		<path id="XMLID_6_" class="st1" d="M246.5,442v-0.1c-1.6-1.3-2.8-1.8-3.6-1.7c-4.3,1.8-6.1,3.8-5.5,6.1l0.2,0.3
			c0.7-0.2,1.4-0.9,1.8-2c1.3-1.4,2.5-2.2,3.7-2.5l0.3-0.1c0.7-0.2,1.5,0.3,2.5,1.4l0.3-0.1C246.6,443.2,246.6,442.7,246.5,442z"/>
	</g>
</g>
</svg>
